<svg width="72" height="23" viewBox="0 0 72 23" fill="none" xmlns="http://www.w3.org/2000/svg">
<g id="Group 87">
<path id="Union" opacity="0.8" fill-rule="evenodd" clip-rule="evenodd" d="M42.8278 11.0433L42.8492 11.0648L31.8438 22.0703L28.1761 18.4027L35.5312 11.0476L28.1719 3.68824L31.8395 0.0206126L42.845 11.0261L42.8278 11.0433Z" fill="#FF5722"/>
<path id="Union_2" opacity="0.8" fill-rule="evenodd" clip-rule="evenodd" d="M14.6559 11.0433L14.6774 11.0648L3.67188 22.0703L0.00425204 18.4027L7.35935 11.0476L-8.03506e-07 3.68824L3.66762 0.0206126L14.6731 11.0261L14.6559 11.0433Z" fill="#FF5722"/>
<path id="Union_3" opacity="0.8" fill-rule="evenodd" clip-rule="evenodd" d="M56.9059 11.0433L56.9274 11.0648L45.9219 22.0703L42.2543 18.4027L49.6094 11.0476L42.25 3.68824L45.9176 0.0206126L56.9231 11.0261L56.9059 11.0433Z" fill="#FF5722"/>
<path id="Union_4" opacity="0.8" fill-rule="evenodd" clip-rule="evenodd" d="M28.734 11.4496L28.7555 11.4711L17.75 22.4766L14.0824 18.8089L21.4375 11.4538L14.0781 4.09449L17.7457 0.426863L28.7512 11.4324L28.734 11.4496Z" fill="#FF5722"/>
<path id="Union_5" opacity="0.8" fill-rule="evenodd" clip-rule="evenodd" d="M70.9918 11.4496L71.0133 11.4711L60.0078 22.4766L56.3402 18.8089L63.6953 11.4538L56.3359 4.09449L60.0036 0.426863L71.0091 11.4324L70.9918 11.4496Z" fill="#FF5722"/>
</g>
</svg>
