<svg width="34" height="150" viewBox="0 0 34 150" fill="none" xmlns="http://www.w3.org/2000/svg">
<g id="Group 88">
<path id="Union" opacity="0.8" fill-rule="evenodd" clip-rule="evenodd" d="M0.609375 27.4688L17.0195 43.8789L17.043 43.8555L17.0664 43.8789L33.4766 27.4688L28.0078 22L17.043 32.9648L6.07812 22L0.609375 27.4688Z" fill="#FF5722"/>
<path id="Union_2" opacity="0.8" fill-rule="evenodd" clip-rule="evenodd" d="M0 5.46875L16.4102 21.8789L16.4414 21.8477L16.4727 21.8789L32.8828 5.46875L27.4141 0L16.4414 10.9727L5.46875 0L0 5.46875Z" fill="#FF5722"/>
<path id="Union_3" opacity="0.8" fill-rule="evenodd" clip-rule="evenodd" d="M0.609375 90.8672L17.0195 107.277L17.043 107.254L17.0664 107.277L33.4766 90.8672L28.0078 85.3984L17.043 96.3633L6.07812 85.3984L0.609375 90.8672Z" fill="#FF5722"/>
<path id="Union_4" opacity="0.8" fill-rule="evenodd" clip-rule="evenodd" d="M0.609375 48.8672L17.0195 65.2773L17.043 65.2539L17.0664 65.2773L33.4766 48.8672L28.0078 43.3984L17.043 54.3633L6.07812 43.3984L0.609375 48.8672Z" fill="#FF5722"/>
<path id="Union_5" opacity="0.8" fill-rule="evenodd" clip-rule="evenodd" d="M0.609375 111.867L17.0195 128.277L17.043 128.254L17.0664 128.277L33.4766 111.867L28.0078 106.398L17.043 117.363L6.07812 106.398L0.609375 111.867Z" fill="#FF5722"/>
<path id="Union_6" opacity="0.8" fill-rule="evenodd" clip-rule="evenodd" d="M0 69.8672L16.4102 86.2773L16.4414 86.2461L16.4727 86.2773L32.8828 69.8672L27.4141 64.3984L16.4414 75.3711L5.46875 64.3984L0 69.8672Z" fill="#FF5722"/>
<path id="Union_7" opacity="0.8" fill-rule="evenodd" clip-rule="evenodd" d="M0 132.867L16.4102 149.277L16.4414 149.246L16.4727 149.277L32.8828 132.867L27.4141 127.398L16.4414 138.371L5.46875 127.398L0 132.867Z" fill="#FF5722"/>
</g>
</svg>
